<svg width="252" height="170" viewBox="0 0 252 170" fill="none" xmlns="http://www.w3.org/2000/svg">
<path d="M77.8753 52.8949C78.7436 52.8949 79.3834 53.1234 79.7947 53.5804C80.206 53.9917 80.4116 54.6772 80.4116 55.6369V76.0645C80.4116 77.1156 79.7033 78.0752 78.2866 78.9435C76.9156 79.7661 75.2019 80.4059 73.1454 80.8629C71.0889 81.3199 69.1239 81.5484 67.2502 81.5484C60.8523 81.5484 56.1224 79.5605 53.0605 75.5846C50.0444 71.5631 48.5363 65.3251 48.5363 56.8707C48.5363 48.6449 50.0672 42.5212 53.1291 38.4996C56.191 34.4781 60.9437 32.4673 67.3873 32.4673C69.4438 32.4673 71.4317 32.7186 73.3511 33.2213C75.2704 33.6783 76.8242 34.2953 78.0124 35.0722C79.2006 35.8033 79.7947 36.5574 79.7947 37.3343C79.7947 37.9284 79.5433 38.7281 79.0406 39.7335C78.5836 40.7389 78.0124 41.63 77.3269 42.4069C76.6414 43.1381 76.0245 43.5037 75.4761 43.5037C75.2933 43.5037 74.8134 43.3437 74.0365 43.0238C73.2597 42.6582 72.3914 42.3612 71.4317 42.1327C70.472 41.8585 69.3295 41.7214 68.0042 41.7214C65.0795 41.7214 62.9316 42.9553 61.5606 45.4231C60.1896 47.8908 59.5042 51.7296 59.5042 56.9393C59.5042 62.5146 60.1439 66.4676 61.4235 68.7983C62.7488 71.0832 64.691 72.2257 67.2502 72.2257C68.347 72.2257 69.2838 72.1343 70.0607 71.9515V61.9434H66.5647C65.8792 61.9434 65.3765 61.6692 65.0566 61.1208C64.7367 60.5724 64.5768 59.7041 64.5768 58.5159V56.3224C64.5768 55.1342 64.7367 54.2659 65.0566 53.7175C65.3765 53.1691 65.8792 52.8949 66.5647 52.8949H77.8753ZM91.7056 81.1371C88.9636 81.1371 87.5927 80.4059 87.5927 78.9435V57.0764C87.5927 55.0656 87.5241 53.5347 87.387 52.4836C87.2956 51.3868 87.1585 50.1758 86.9757 48.8505C86.8386 48.2107 86.7701 47.7309 86.7701 47.411C86.7701 46.6798 87.6841 46.1314 89.512 45.7658C91.3857 45.4002 93.0309 45.2174 94.4476 45.2174C95.2701 45.2174 95.8414 45.5373 96.1613 46.1771C96.4812 46.8169 96.7097 47.5252 96.8468 48.3021C97.0296 49.0333 97.1438 49.536 97.1895 49.8102C97.8293 48.2107 98.5833 46.954 99.4516 46.04C100.32 45.0803 101.508 44.6005 103.016 44.6005C104.296 44.6005 105.141 44.8975 105.552 45.4916C106.009 46.04 106.238 46.9768 106.238 48.3021C106.238 49.3075 106.055 50.5871 105.69 52.1409C105.37 53.6946 104.958 54.4715 104.456 54.4715C104.182 54.4715 103.702 54.3801 103.016 54.1973C102.331 54.0145 101.737 53.9231 101.234 53.9231C100.366 53.9231 99.6344 54.243 99.0403 54.8828C98.4462 55.5226 98.0121 56.3452 97.7379 57.3506V78.9435C97.7379 80.4059 96.3669 81.1371 93.625 81.1371H91.7056ZM123.401 81.5484C118.1 81.5484 114.193 80.0175 111.68 76.9556C109.166 73.8481 107.909 69.301 107.909 63.3144C107.909 56.5508 109.143 51.7524 111.611 48.9191C114.125 46.04 117.643 44.6005 122.168 44.6005C126.646 44.6005 129.891 46.1771 131.902 49.3304C133.912 52.4836 134.918 57.0535 134.918 63.0402C134.918 63.5885 134.438 64.4111 133.478 65.5079C132.564 66.559 131.879 67.0845 131.422 67.0845H118.397C118.489 69.4152 119.014 71.0832 119.974 72.0886C120.934 73.0483 122.236 73.5282 123.881 73.5282C124.887 73.5282 125.801 73.3911 126.623 73.1169C127.446 72.8427 128.246 72.5228 129.023 72.1572C129.799 71.7459 130.279 71.5402 130.462 71.5402C130.919 71.5402 131.422 71.883 131.97 72.5685C132.564 73.2083 133.044 73.9623 133.41 74.8306C133.821 75.6532 134.027 76.293 134.027 76.75C134.027 77.801 133.41 78.6922 132.176 79.4234C130.942 80.1089 129.479 80.6344 127.789 81C126.143 81.3656 124.681 81.5484 123.401 81.5484ZM125.664 60.9837C125.664 57.739 125.389 55.4312 124.841 54.0602C124.293 52.6436 123.379 51.9352 122.099 51.9352C120.865 51.9352 119.905 52.5979 119.22 53.9231C118.58 55.2484 118.169 57.6019 117.986 60.9837H125.664ZM154.195 81.5484C148.894 81.5484 144.987 80.0175 142.473 76.9556C139.96 73.8481 138.703 69.301 138.703 63.3144C138.703 56.5508 139.937 51.7524 142.405 48.9191C144.918 46.04 148.437 44.6005 152.961 44.6005C157.44 44.6005 160.684 46.1771 162.695 49.3304C164.706 52.4836 165.711 57.0535 165.711 63.0402C165.711 63.5885 165.231 64.4111 164.272 65.5079C163.358 66.559 162.672 67.0845 162.215 67.0845H149.191C149.282 69.4152 149.808 71.0832 150.768 72.0886C151.727 73.0483 153.03 73.5282 154.675 73.5282C155.68 73.5282 156.594 73.3911 157.417 73.1169C158.239 72.8427 159.039 72.5228 159.816 72.1572C160.593 71.7459 161.073 71.5402 161.256 71.5402C161.713 71.5402 162.215 71.883 162.764 72.5685C163.358 73.2083 163.838 73.9623 164.203 74.8306C164.614 75.6532 164.82 76.293 164.82 76.75C164.82 77.801 164.203 78.6922 162.969 79.4234C161.735 80.1089 160.273 80.6344 158.582 81C156.937 81.3656 155.475 81.5484 154.195 81.5484ZM156.457 60.9837C156.457 57.739 156.183 55.4312 155.635 54.0602C155.086 52.6436 154.172 51.9352 152.893 51.9352C151.659 51.9352 150.699 52.5979 150.013 53.9231C149.374 55.2484 148.962 57.6019 148.78 60.9837H156.457Z" fill="white"/>
<path d="M173 77L175.24 58.1045C175.579 55.2402 175.747 53.8093 176.52 52.727C177.198 51.7743 178.196 51.0125 179.387 50.5378C180.739 50 182.44 50 185.853 50L192.147 50C195.557 50 197.261 50 198.613 50.54C199.805 51.0144 200.804 51.7762 201.483 52.7292C202.251 53.8092 202.421 55.2402 202.763 58.1045L205 77" stroke="white" stroke-width="6" stroke-linecap="round" stroke-linejoin="round"/>
<path d="M185 62.375L185 73.625M193 62.375L193 73.625" stroke="#E4A93E" stroke-width="6" stroke-linecap="round" stroke-linejoin="round"/>
<path d="M68.5404 155.206C65.8898 155.206 64.5645 154.452 64.5645 152.944V109.072C64.5645 107.564 65.8898 106.81 68.5404 106.81H71.4195C74.0243 106.81 75.3267 107.564 75.3267 109.072V152.944C75.3267 154.452 74.0243 155.206 71.4195 155.206H68.5404ZM86.8237 155.137C84.0817 155.137 82.7108 154.406 82.7108 152.944V131.076C82.7108 129.066 82.6422 127.535 82.5051 126.484C82.4137 125.387 82.2766 124.176 82.0938 122.851C81.9567 122.211 81.8882 121.731 81.8882 121.411C81.8882 120.68 82.8022 120.131 84.6301 119.766C86.5038 119.4 88.149 119.217 89.5657 119.217C90.3882 119.217 90.9595 119.537 91.2794 120.177C91.5993 120.817 91.8278 121.525 91.9649 122.302C92.1477 123.033 92.2619 123.536 92.3076 123.81C92.9474 122.211 93.7015 120.954 94.5697 120.04C95.438 119.08 96.6262 118.601 98.1343 118.601C99.4139 118.601 100.259 118.898 100.671 119.492C101.128 120.04 101.356 120.977 101.356 122.302C101.356 123.308 101.173 124.587 100.808 126.141C100.488 127.695 100.077 128.472 99.5738 128.472C99.2996 128.472 98.8198 128.38 98.1343 128.197C97.4488 128.015 96.8547 127.923 96.352 127.923C95.4837 127.923 94.7525 128.243 94.1584 128.883C93.5644 129.523 93.1302 130.345 92.856 131.351V152.944C92.856 154.406 91.485 155.137 88.7431 155.137H86.8237ZM112.693 155.548C109.677 155.548 107.346 154.589 105.701 152.669C104.101 150.75 103.302 148.122 103.302 144.786C103.302 136.24 108.626 131.99 119.274 132.036V130.939C119.274 129.477 118.931 128.403 118.245 127.718C117.606 126.986 116.555 126.621 115.092 126.621C114.087 126.621 113.196 126.758 112.419 127.032C111.642 127.261 110.774 127.603 109.814 128.06C109.174 128.426 108.694 128.609 108.374 128.609C107.917 128.609 107.415 128.266 106.866 127.58C106.318 126.895 105.838 126.118 105.427 125.25C105.015 124.336 104.81 123.627 104.81 123.125C104.81 122.348 105.335 121.617 106.386 120.931C107.483 120.2 108.877 119.629 110.568 119.217C112.304 118.806 114.064 118.601 115.846 118.601C120.599 118.601 124.049 119.652 126.197 121.754C128.345 123.856 129.419 126.758 129.419 130.46V142.935C129.419 145.038 129.465 146.637 129.556 147.734C129.693 148.831 129.853 150.042 130.036 151.367C130.173 151.961 130.241 152.464 130.241 152.875C130.241 153.606 129.305 154.155 127.431 154.52C125.603 154.886 123.981 155.069 122.564 155.069C121.833 155.069 121.307 154.794 120.987 154.246C120.713 153.698 120.416 152.806 120.096 151.573C119.502 152.578 118.565 153.492 117.286 154.315C116.006 155.137 114.475 155.548 112.693 155.548ZM115.778 148.214C116.509 148.214 117.171 148.008 117.766 147.597C118.405 147.185 118.908 146.637 119.274 145.952V137.931C114.704 137.931 112.419 139.965 112.419 144.032C112.419 145.312 112.716 146.34 113.31 147.117C113.904 147.848 114.727 148.214 115.778 148.214ZM141.445 155.137C138.704 155.137 137.333 154.406 137.333 152.944V121.205C137.333 119.743 138.704 119.012 141.445 119.012H143.365C146.107 119.012 147.478 119.743 147.478 121.205V152.944C147.478 154.406 146.107 155.137 143.365 155.137H141.445ZM142.474 115.653C139.092 115.653 137.401 114.922 137.401 113.459V108.113C137.401 106.65 139.092 105.919 142.474 105.919C145.855 105.919 147.546 106.65 147.546 108.113V113.459C147.546 114.922 145.855 115.653 142.474 115.653ZM163.375 155.548C157.48 155.548 154.532 152.075 154.532 145.129V105.508C154.532 104.045 155.903 103.314 158.645 103.314H160.564C163.306 103.314 164.677 104.045 164.677 105.508V145.266C164.677 146.043 164.791 146.614 165.02 146.98C165.294 147.345 165.728 147.528 166.322 147.528C166.505 147.528 166.757 147.483 167.076 147.391C167.396 147.3 167.648 147.254 167.83 147.254C168.425 147.254 168.904 147.871 169.27 149.105C169.636 150.293 169.818 151.367 169.818 152.327C169.818 153.423 169.133 154.246 167.762 154.794C166.437 155.297 164.974 155.548 163.375 155.548Z" fill="white"/>
<path d="M9.48906 72.1557C11.7433 71.5753 13.9607 70.9314 16.1533 70.2351C16.7442 71.3724 17.3645 72.464 17.9303 73.4843C20.2928 77.7467 23.1149 81.8088 26.2635 85.5296C32.3548 92.7273 39.9519 98.8776 48.3436 103.2C65.0344 111.795 85.2276 113.833 103.131 107.786C108.929 105.827 114.836 103.469 119.803 99.8257C123.511 97.106 129.329 92.5321 127.737 87.124C127.358 85.8378 114.902 91.5478 114.145 91.9023C110.6 93.564 107.081 95.3529 103.376 96.6472C95.6939 99.3308 87.5827 100.778 79.4363 100.549C63.0039 100.089 47.5304 92.7477 36.3963 80.7121C33.3823 77.454 30.6964 73.9302 28.4448 70.1052C27.7802 68.9758 27.1961 67.6967 26.6163 66.3778C27.19 67.6834 34.2692 62.0599 34.1222 59.7747C33.8688 55.8485 28.0653 53.9892 25.2553 52.3865C22.6215 50.884 18.8723 47.7122 15.6233 48.441C12.489 49.1446 10.6111 53.5486 9.22314 56.0876C7.3597 59.4962 5.79901 63.0551 4.47949 66.706C3.39192 69.7114 6.41838 72.9462 9.48906 72.1557Z" fill="#E4A93E"/>
<path d="M22.8253 69.1815C34.5034 90.149 69.8561 124.546 117.842 94.3955" stroke="#19846B" stroke-width="2" stroke-linecap="round" stroke-linejoin="round" stroke-dasharray="7 7"/>
<path d="M243.089 51.8075C241.07 52.3273 239.084 52.904 237.12 53.5277C236.591 52.509 236.035 51.5314 235.529 50.6175C233.413 46.8 230.885 43.1618 228.065 39.8293C222.61 33.3829 215.805 27.8744 208.289 24.0035C193.341 16.3051 175.255 14.4797 159.22 19.896C154.027 21.6502 148.737 23.7624 144.288 27.0252C140.967 29.4611 135.756 33.5576 137.182 38.4013C137.522 39.5533 148.677 34.4392 149.355 34.1217C152.531 32.6335 155.683 31.0313 159.001 29.872C165.881 27.4685 173.146 26.1727 180.442 26.3771C195.159 26.7891 209.018 33.3645 218.99 44.1441C221.689 47.0621 224.095 50.2182 226.111 53.6439C226.707 54.6555 227.23 55.8011 227.749 56.9824C227.235 55.8131 220.895 60.8496 221.027 62.8963C221.254 66.4127 226.451 68.078 228.968 69.5134C231.327 70.8591 234.685 73.6999 237.595 73.0472C240.402 72.417 242.084 68.4727 243.327 66.1986C244.996 63.1457 246.394 59.9583 247.576 56.6884C248.55 53.9967 245.839 51.0995 243.089 51.8075Z" fill="#E4A93E"/>
<path d="M231.145 54.4712C220.685 35.692 189.022 4.8847 146.044 31.8886" stroke="#19846B" stroke-width="2" stroke-linecap="round" stroke-linejoin="round" stroke-dasharray="7 7"/>
</svg>
